<mxfile host="app.diagrams.net" agent="Mozilla/5.0 (Windows NT 10.0; Win64; x64) AppleWebKit/537.36 (KHTML, like Gecko) Chrome/129.0.0.0 Safari/537.36" version="24.8.0">
  <diagram name="Página-1" id="7D0K5FgizWwI69ycJmWe">
    <mxGraphModel dx="1886" dy="806" grid="1" gridSize="10" guides="1" tooltips="1" connect="1" arrows="1" fold="1" page="1" pageScale="1" pageWidth="827" pageHeight="1169" math="0" shadow="0">
      <root>
        <mxCell id="0" />
        <mxCell id="1" parent="0" />
        <mxCell id="sKLRubMEo-2ZgbhgU7KL-1" value="API-USER" style="rounded=1;whiteSpace=wrap;html=1;fillColor=#bac8d3;strokeColor=default;gradientColor=none;fillStyle=auto;glass=0;shadow=1;sketch=1;curveFitting=1;jiggle=2;fontSize=16;fontFamily=Comic Sans MS;" parent="1" vertex="1">
          <mxGeometry x="30" y="30" width="120" height="60" as="geometry" />
        </mxCell>
        <mxCell id="sKLRubMEo-2ZgbhgU7KL-2" value="Spring Security" style="rounded=1;whiteSpace=wrap;html=1;fillColor=#bac8d3;strokeColor=default;gradientColor=none;fillStyle=auto;glass=0;shadow=1;sketch=1;curveFitting=1;jiggle=2;fontSize=16;fontFamily=Comic Sans MS;" parent="1" vertex="1">
          <mxGeometry x="25" y="100" width="130" height="60" as="geometry" />
        </mxCell>
        <mxCell id="sKLRubMEo-2ZgbhgU7KL-3" value="AuthController&lt;div&gt;login()&lt;/div&gt;" style="rounded=1;whiteSpace=wrap;html=1;fillColor=#bac8d3;strokeColor=default;gradientColor=none;fillStyle=auto;glass=0;shadow=1;sketch=1;curveFitting=1;jiggle=2;fontSize=16;fontFamily=Comic Sans MS;" parent="1" vertex="1">
          <mxGeometry x="606" y="230" width="130" height="60" as="geometry" />
        </mxCell>
        <mxCell id="RYuyr1wAwuhCFubWhb6a-1" style="edgeStyle=orthogonalEdgeStyle;rounded=0;orthogonalLoop=1;jettySize=auto;html=1;exitX=0.5;exitY=1;exitDx=0;exitDy=0;" edge="1" parent="1" source="sKLRubMEo-2ZgbhgU7KL-4" target="sKLRubMEo-2ZgbhgU7KL-7">
          <mxGeometry relative="1" as="geometry" />
        </mxCell>
        <mxCell id="sKLRubMEo-2ZgbhgU7KL-4" value="POST&amp;nbsp;/api/users&amp;nbsp;" style="rounded=1;whiteSpace=wrap;html=1;fillColor=#bac8d3;strokeColor=default;gradientColor=none;fillStyle=auto;glass=0;shadow=1;sketch=1;curveFitting=1;jiggle=2;fontSize=16;fontFamily=Comic Sans MS;" parent="1" vertex="1">
          <mxGeometry x="259" y="30" width="140" height="60" as="geometry" />
        </mxCell>
        <mxCell id="RYuyr1wAwuhCFubWhb6a-3" style="edgeStyle=orthogonalEdgeStyle;rounded=0;orthogonalLoop=1;jettySize=auto;html=1;exitX=0.5;exitY=1;exitDx=0;exitDy=0;" edge="1" parent="1" source="sKLRubMEo-2ZgbhgU7KL-5" target="sKLRubMEo-2ZgbhgU7KL-6">
          <mxGeometry relative="1" as="geometry" />
        </mxCell>
        <mxCell id="sKLRubMEo-2ZgbhgU7KL-5" value="doFilterInternal" style="rounded=1;whiteSpace=wrap;html=1;fillColor=#bac8d3;strokeColor=default;gradientColor=none;fillStyle=auto;glass=0;shadow=1;sketch=1;curveFitting=1;jiggle=2;fontSize=16;fontFamily=Comic Sans MS;" parent="1" vertex="1">
          <mxGeometry x="264" y="145" width="130" height="60" as="geometry" />
        </mxCell>
        <mxCell id="sKLRubMEo-2ZgbhgU7KL-6" value="UserController&lt;div&gt;createUser()&lt;/div&gt;" style="rounded=1;whiteSpace=wrap;html=1;fillColor=#bac8d3;strokeColor=default;gradientColor=none;fillStyle=auto;glass=0;shadow=1;sketch=1;curveFitting=1;jiggle=2;fontSize=16;fontFamily=Comic Sans MS;" parent="1" vertex="1">
          <mxGeometry x="264" y="225" width="130" height="60" as="geometry" />
        </mxCell>
        <mxCell id="RYuyr1wAwuhCFubWhb6a-2" style="edgeStyle=orthogonalEdgeStyle;rounded=0;orthogonalLoop=1;jettySize=auto;html=1;exitX=0.5;exitY=1;exitDx=0;exitDy=0;entryX=0.5;entryY=0;entryDx=0;entryDy=0;" edge="1" parent="1" source="sKLRubMEo-2ZgbhgU7KL-7" target="sKLRubMEo-2ZgbhgU7KL-5">
          <mxGeometry relative="1" as="geometry" />
        </mxCell>
        <mxCell id="sKLRubMEo-2ZgbhgU7KL-7" value="permitAll" style="rounded=1;whiteSpace=wrap;html=1;fontSize=16;fontFamily=Comic Sans MS;fillColor=#cdeb8b;strokeColor=#36393d;" parent="1" vertex="1">
          <mxGeometry x="269" y="100" width="120" height="30" as="geometry" />
        </mxCell>
        <mxCell id="sKLRubMEo-2ZgbhgU7KL-8" value="UserRepository&lt;div&gt;save()&lt;/div&gt;" style="rounded=1;whiteSpace=wrap;html=1;fillColor=#bac8d3;strokeColor=default;gradientColor=none;fillStyle=auto;glass=0;shadow=1;sketch=1;curveFitting=1;jiggle=2;fontSize=16;fontFamily=Comic Sans MS;" parent="1" vertex="1">
          <mxGeometry x="249" y="455" width="150" height="60" as="geometry" />
        </mxCell>
        <mxCell id="sKLRubMEo-2ZgbhgU7KL-9" value="convert to UserDTO" style="rounded=1;whiteSpace=wrap;html=1;fillColor=#bac8d3;strokeColor=default;gradientColor=none;fillStyle=auto;glass=0;shadow=1;sketch=1;curveFitting=1;jiggle=2;fontSize=16;fontFamily=Comic Sans MS;" parent="1" vertex="1">
          <mxGeometry x="264" y="610" width="130" height="60" as="geometry" />
        </mxCell>
        <mxCell id="sKLRubMEo-2ZgbhgU7KL-10" value="UserService&lt;div&gt;createUser()&lt;/div&gt;" style="rounded=1;whiteSpace=wrap;html=1;fillColor=#bac8d3;strokeColor=default;gradientColor=none;fillStyle=auto;glass=0;shadow=1;sketch=1;curveFitting=1;jiggle=2;fontSize=16;fontFamily=Comic Sans MS;" parent="1" vertex="1">
          <mxGeometry x="264" y="305" width="130" height="60" as="geometry" />
        </mxCell>
        <mxCell id="sKLRubMEo-2ZgbhgU7KL-11" value="POST&amp;nbsp;/auth/login&amp;nbsp;" style="rounded=1;whiteSpace=wrap;html=1;fillColor=#bac8d3;strokeColor=default;gradientColor=none;fillStyle=auto;glass=0;shadow=1;sketch=1;curveFitting=1;jiggle=2;fontSize=16;fontFamily=Comic Sans MS;" parent="1" vertex="1">
          <mxGeometry x="593.5" y="30" width="155" height="60" as="geometry" />
        </mxCell>
        <mxCell id="sKLRubMEo-2ZgbhgU7KL-12" value="doFilterInternal" style="rounded=1;whiteSpace=wrap;html=1;fillColor=#bac8d3;strokeColor=default;gradientColor=none;fillStyle=auto;glass=0;shadow=1;sketch=1;curveFitting=1;jiggle=2;fontSize=16;fontFamily=Comic Sans MS;" parent="1" vertex="1">
          <mxGeometry x="606" y="110" width="130" height="60" as="geometry" />
        </mxCell>
        <mxCell id="sKLRubMEo-2ZgbhgU7KL-13" value="permitAll" style="rounded=1;whiteSpace=wrap;html=1;fontSize=16;fontFamily=Comic Sans MS;fillColor=#cdeb8b;strokeColor=#36393d;" parent="1" vertex="1">
          <mxGeometry x="611" y="190" width="120" height="30" as="geometry" />
        </mxCell>
        <mxCell id="sKLRubMEo-2ZgbhgU7KL-14" value="Hibernate: insert into users" style="rounded=1;whiteSpace=wrap;html=1;fillColor=#bac8d3;strokeColor=default;gradientColor=none;fillStyle=auto;glass=0;shadow=1;sketch=1;curveFitting=1;jiggle=2;fontSize=16;fontFamily=Comic Sans MS;" parent="1" vertex="1">
          <mxGeometry x="244" y="530" width="170" height="60" as="geometry" />
        </mxCell>
        <mxCell id="sKLRubMEo-2ZgbhgU7KL-15" value="Response 200 +&lt;div&gt;UserDTO&lt;/div&gt;" style="rounded=1;whiteSpace=wrap;html=1;fillColor=#bac8d3;strokeColor=default;gradientColor=none;fillStyle=auto;glass=0;shadow=1;sketch=1;curveFitting=1;jiggle=2;fontSize=16;fontFamily=Comic Sans MS;" parent="1" vertex="1">
          <mxGeometry x="264" y="690" width="130" height="60" as="geometry" />
        </mxCell>
        <mxCell id="sKLRubMEo-2ZgbhgU7KL-16" value="GET /api/users&lt;div&gt;&lt;div&gt;GET /api/users/id&amp;nbsp;&lt;br&gt;&lt;/div&gt;&lt;/div&gt;&lt;div&gt;PUT /api/users/id&lt;/div&gt;&lt;div&gt;DELETE&lt;span style=&quot;background-color: initial;&quot;&gt;&amp;nbsp;/api/users/id&amp;nbsp;&lt;/span&gt;&lt;span style=&quot;background-color: initial;&quot;&gt;&amp;nbsp;&lt;/span&gt;&lt;/div&gt;" style="rounded=1;whiteSpace=wrap;html=1;fillColor=#bac8d3;strokeColor=default;gradientColor=none;fillStyle=auto;glass=0;shadow=1;sketch=1;curveFitting=1;jiggle=2;fontSize=16;fontFamily=Comic Sans MS;" parent="1" vertex="1">
          <mxGeometry x="1053.75" y="30" width="202.5" height="90" as="geometry" />
        </mxCell>
        <mxCell id="RYuyr1wAwuhCFubWhb6a-30" style="edgeStyle=orthogonalEdgeStyle;rounded=0;orthogonalLoop=1;jettySize=auto;html=1;exitX=0.5;exitY=1;exitDx=0;exitDy=0;entryX=0.5;entryY=0;entryDx=0;entryDy=0;" edge="1" parent="1" source="sKLRubMEo-2ZgbhgU7KL-18" target="sKLRubMEo-2ZgbhgU7KL-19">
          <mxGeometry relative="1" as="geometry" />
        </mxCell>
        <mxCell id="sKLRubMEo-2ZgbhgU7KL-18" value="authenticated" style="rounded=1;whiteSpace=wrap;html=1;fontSize=16;fontFamily=Comic Sans MS;fillColor=#e3c800;strokeColor=#B09500;fontColor=#000000;" parent="1" vertex="1">
          <mxGeometry x="1095" y="130" width="120" height="30" as="geometry" />
        </mxCell>
        <mxCell id="sKLRubMEo-2ZgbhgU7KL-19" value="doFilterInternal" style="rounded=1;whiteSpace=wrap;html=1;fillColor=#bac8d3;strokeColor=default;gradientColor=none;fillStyle=auto;glass=0;shadow=1;sketch=1;curveFitting=1;jiggle=2;fontSize=16;fontFamily=Comic Sans MS;" parent="1" vertex="1">
          <mxGeometry x="1090" y="175" width="130" height="60" as="geometry" />
        </mxCell>
        <mxCell id="sKLRubMEo-2ZgbhgU7KL-20" value="JwtTokenProvider&lt;div&gt;isTokenValid()&lt;/div&gt;" style="rounded=1;whiteSpace=wrap;html=1;fillColor=#bac8d3;strokeColor=default;gradientColor=none;fillStyle=auto;glass=0;shadow=1;sketch=1;curveFitting=1;jiggle=2;fontSize=16;fontFamily=Comic Sans MS;" parent="1" vertex="1">
          <mxGeometry x="1077.5" y="250.25" width="155" height="60" as="geometry" />
        </mxCell>
        <mxCell id="RYuyr1wAwuhCFubWhb6a-25" style="edgeStyle=orthogonalEdgeStyle;rounded=0;orthogonalLoop=1;jettySize=auto;html=1;exitX=0.5;exitY=1;exitDx=0;exitDy=0;" edge="1" parent="1" source="sKLRubMEo-2ZgbhgU7KL-21" target="sKLRubMEo-2ZgbhgU7KL-35">
          <mxGeometry relative="1" as="geometry" />
        </mxCell>
        <mxCell id="sKLRubMEo-2ZgbhgU7KL-21" value="token válido" style="rounded=1;whiteSpace=wrap;html=1;fontSize=16;fontFamily=Comic Sans MS;fillColor=#cdeb8b;strokeColor=#36393d;" parent="1" vertex="1">
          <mxGeometry x="1007.5" y="330" width="120" height="30" as="geometry" />
        </mxCell>
        <mxCell id="RYuyr1wAwuhCFubWhb6a-26" style="edgeStyle=orthogonalEdgeStyle;rounded=0;orthogonalLoop=1;jettySize=auto;html=1;exitX=0.5;exitY=1;exitDx=0;exitDy=0;entryX=0.5;entryY=0;entryDx=0;entryDy=0;" edge="1" parent="1" source="sKLRubMEo-2ZgbhgU7KL-22" target="sKLRubMEo-2ZgbhgU7KL-23">
          <mxGeometry relative="1" as="geometry" />
        </mxCell>
        <mxCell id="sKLRubMEo-2ZgbhgU7KL-22" value="token inválido/ não encontrado" style="rounded=1;whiteSpace=wrap;html=1;fontSize=16;fontFamily=Comic Sans MS;fillColor=#ffcccc;strokeColor=#36393d;" parent="1" vertex="1">
          <mxGeometry x="1187.5" y="330" width="140" height="45" as="geometry" />
        </mxCell>
        <mxCell id="sKLRubMEo-2ZgbhgU7KL-23" value="Response 403" style="rounded=1;whiteSpace=wrap;html=1;fillColor=#bac8d3;strokeColor=default;gradientColor=none;fillStyle=auto;glass=0;shadow=1;sketch=1;curveFitting=1;jiggle=2;fontSize=16;fontFamily=Comic Sans MS;" parent="1" vertex="1">
          <mxGeometry x="1192.5" y="395" width="130" height="60" as="geometry" />
        </mxCell>
        <mxCell id="sKLRubMEo-2ZgbhgU7KL-24" value="authenticationManager&lt;div&gt;authenticate()&lt;/div&gt;" style="rounded=1;whiteSpace=wrap;html=1;fillColor=#bac8d3;strokeColor=default;gradientColor=none;fillStyle=auto;glass=0;shadow=1;sketch=1;curveFitting=1;jiggle=2;fontSize=16;fontFamily=Comic Sans MS;" parent="1" vertex="1">
          <mxGeometry x="556" y="306.25" width="230" height="60" as="geometry" />
        </mxCell>
        <mxCell id="sKLRubMEo-2ZgbhgU7KL-25" value="UserRepository&lt;div&gt;findByUsername()&lt;/div&gt;" style="rounded=1;whiteSpace=wrap;html=1;fillColor=#bac8d3;strokeColor=default;gradientColor=none;fillStyle=auto;glass=0;shadow=1;sketch=1;curveFitting=1;jiggle=2;fontSize=16;fontFamily=Comic Sans MS;" parent="1" vertex="1">
          <mxGeometry x="596" y="461.25" width="150" height="60" as="geometry" />
        </mxCell>
        <mxCell id="sKLRubMEo-2ZgbhgU7KL-26" value="Response 401" style="rounded=1;whiteSpace=wrap;html=1;fillColor=#bac8d3;strokeColor=default;gradientColor=none;fillStyle=auto;glass=0;shadow=1;sketch=1;curveFitting=1;jiggle=2;fontSize=16;fontFamily=Comic Sans MS;" parent="1" vertex="1">
          <mxGeometry x="515" y="661.25" width="130" height="60" as="geometry" />
        </mxCell>
        <mxCell id="sKLRubMEo-2ZgbhgU7KL-27" value="CustomeUserDetailsService&lt;div&gt;/UserDetailsService&lt;div&gt;loadUserByName()&lt;/div&gt;&lt;/div&gt;" style="rounded=1;whiteSpace=wrap;html=1;fillColor=#bac8d3;strokeColor=default;gradientColor=none;fillStyle=auto;glass=0;shadow=1;sketch=1;curveFitting=1;jiggle=2;fontSize=16;fontFamily=Comic Sans MS;" parent="1" vertex="1">
          <mxGeometry x="556" y="381.25" width="230" height="60" as="geometry" />
        </mxCell>
        <mxCell id="RYuyr1wAwuhCFubWhb6a-19" style="edgeStyle=orthogonalEdgeStyle;rounded=0;orthogonalLoop=1;jettySize=auto;html=1;exitX=0.5;exitY=1;exitDx=0;exitDy=0;entryX=0.5;entryY=0;entryDx=0;entryDy=0;" edge="1" parent="1" source="sKLRubMEo-2ZgbhgU7KL-28" target="sKLRubMEo-2ZgbhgU7KL-26">
          <mxGeometry relative="1" as="geometry" />
        </mxCell>
        <mxCell id="sKLRubMEo-2ZgbhgU7KL-28" value="Invalid Credentials" style="rounded=1;whiteSpace=wrap;html=1;fontSize=16;fontFamily=Comic Sans MS;fillColor=#ffcccc;strokeColor=#36393d;" parent="1" vertex="1">
          <mxGeometry x="500" y="616.25" width="160" height="30" as="geometry" />
        </mxCell>
        <mxCell id="sKLRubMEo-2ZgbhgU7KL-30" value="Successful authentication" style="rounded=1;whiteSpace=wrap;html=1;fontSize=16;fontFamily=Comic Sans MS;fillColor=#cdeb8b;strokeColor=#36393d;" parent="1" vertex="1">
          <mxGeometry x="676" y="616.25" width="190" height="40" as="geometry" />
        </mxCell>
        <mxCell id="RYuyr1wAwuhCFubWhb6a-21" style="edgeStyle=orthogonalEdgeStyle;rounded=0;orthogonalLoop=1;jettySize=auto;html=1;exitX=0.5;exitY=1;exitDx=0;exitDy=0;entryX=0.5;entryY=0;entryDx=0;entryDy=0;" edge="1" parent="1" source="sKLRubMEo-2ZgbhgU7KL-31" target="sKLRubMEo-2ZgbhgU7KL-32">
          <mxGeometry relative="1" as="geometry" />
        </mxCell>
        <mxCell id="sKLRubMEo-2ZgbhgU7KL-31" value="JwtTokenProvider&lt;div&gt;createToken()&lt;/div&gt;" style="rounded=1;whiteSpace=wrap;html=1;fillColor=#bac8d3;strokeColor=default;gradientColor=none;fillStyle=auto;glass=0;shadow=1;sketch=1;curveFitting=1;jiggle=2;fontSize=16;fontFamily=Comic Sans MS;" parent="1" vertex="1">
          <mxGeometry x="688.5" y="672.5" width="155" height="60" as="geometry" />
        </mxCell>
        <mxCell id="sKLRubMEo-2ZgbhgU7KL-32" value="Response 200 + Token" style="rounded=1;whiteSpace=wrap;html=1;fillColor=#bac8d3;strokeColor=default;gradientColor=none;fillStyle=auto;glass=0;shadow=1;sketch=1;curveFitting=1;jiggle=2;fontSize=16;fontFamily=Comic Sans MS;" parent="1" vertex="1">
          <mxGeometry x="688.5" y="750" width="155" height="60" as="geometry" />
        </mxCell>
        <mxCell id="RYuyr1wAwuhCFubWhb6a-18" style="edgeStyle=orthogonalEdgeStyle;rounded=0;orthogonalLoop=1;jettySize=auto;html=1;exitX=1;exitY=1;exitDx=0;exitDy=0;entryX=0.5;entryY=0;entryDx=0;entryDy=0;" edge="1" parent="1" source="sKLRubMEo-2ZgbhgU7KL-33" target="sKLRubMEo-2ZgbhgU7KL-30">
          <mxGeometry relative="1" as="geometry" />
        </mxCell>
        <mxCell id="sKLRubMEo-2ZgbhgU7KL-33" value="Hibernate: select +&lt;div&gt;encode.matches()&lt;/div&gt;" style="rounded=1;whiteSpace=wrap;html=1;fillColor=#bac8d3;strokeColor=default;gradientColor=none;fillStyle=auto;glass=0;shadow=1;sketch=1;curveFitting=1;jiggle=2;fontSize=16;fontFamily=Comic Sans MS;" parent="1" vertex="1">
          <mxGeometry x="591" y="536.25" width="160" height="60" as="geometry" />
        </mxCell>
        <mxCell id="sKLRubMEo-2ZgbhgU7KL-34" value="BCrypt&lt;div&gt;passwordEncoder()&lt;/div&gt;" style="rounded=1;whiteSpace=wrap;html=1;fillColor=#bac8d3;strokeColor=default;gradientColor=none;fillStyle=auto;glass=0;shadow=1;sketch=1;curveFitting=1;jiggle=2;fontSize=16;fontFamily=Comic Sans MS;" parent="1" vertex="1">
          <mxGeometry x="264" y="377.5" width="150" height="60" as="geometry" />
        </mxCell>
        <mxCell id="RYuyr1wAwuhCFubWhb6a-24" style="edgeStyle=orthogonalEdgeStyle;rounded=0;orthogonalLoop=1;jettySize=auto;html=1;exitX=0.5;exitY=1;exitDx=0;exitDy=0;entryX=0.5;entryY=0;entryDx=0;entryDy=0;" edge="1" parent="1" source="sKLRubMEo-2ZgbhgU7KL-35" target="sKLRubMEo-2ZgbhgU7KL-36">
          <mxGeometry relative="1" as="geometry" />
        </mxCell>
        <mxCell id="sKLRubMEo-2ZgbhgU7KL-35" value="UserController" style="rounded=1;whiteSpace=wrap;html=1;fillColor=#bac8d3;strokeColor=default;gradientColor=none;fillStyle=auto;glass=0;shadow=1;sketch=1;curveFitting=1;jiggle=2;fontSize=16;fontFamily=Comic Sans MS;" parent="1" vertex="1">
          <mxGeometry x="1002.5" y="375" width="130" height="60" as="geometry" />
        </mxCell>
        <mxCell id="RYuyr1wAwuhCFubWhb6a-23" style="edgeStyle=orthogonalEdgeStyle;rounded=0;orthogonalLoop=1;jettySize=auto;html=1;exitX=0.5;exitY=1;exitDx=0;exitDy=0;entryX=0.5;entryY=0;entryDx=0;entryDy=0;" edge="1" parent="1" source="sKLRubMEo-2ZgbhgU7KL-36" target="sKLRubMEo-2ZgbhgU7KL-37">
          <mxGeometry relative="1" as="geometry" />
        </mxCell>
        <mxCell id="sKLRubMEo-2ZgbhgU7KL-36" value="UserService" style="rounded=1;whiteSpace=wrap;html=1;fillColor=#bac8d3;strokeColor=default;gradientColor=none;fillStyle=auto;glass=0;shadow=1;sketch=1;curveFitting=1;jiggle=2;fontSize=16;fontFamily=Comic Sans MS;" parent="1" vertex="1">
          <mxGeometry x="1002.5" y="448" width="130" height="60" as="geometry" />
        </mxCell>
        <mxCell id="RYuyr1wAwuhCFubWhb6a-22" style="edgeStyle=orthogonalEdgeStyle;rounded=0;orthogonalLoop=1;jettySize=auto;html=1;exitX=0.5;exitY=1;exitDx=0;exitDy=0;entryX=0.5;entryY=0;entryDx=0;entryDy=0;" edge="1" parent="1" source="sKLRubMEo-2ZgbhgU7KL-37" target="sKLRubMEo-2ZgbhgU7KL-39">
          <mxGeometry relative="1" as="geometry" />
        </mxCell>
        <mxCell id="sKLRubMEo-2ZgbhgU7KL-37" value="UserRepository + Hibernate" style="rounded=1;whiteSpace=wrap;html=1;fillColor=#bac8d3;strokeColor=default;gradientColor=none;fillStyle=auto;glass=0;shadow=1;sketch=1;curveFitting=1;jiggle=2;fontSize=16;fontFamily=Comic Sans MS;" parent="1" vertex="1">
          <mxGeometry x="1002.5" y="525" width="130" height="60" as="geometry" />
        </mxCell>
        <mxCell id="sKLRubMEo-2ZgbhgU7KL-39" value="Response&lt;div&gt;&amp;nbsp;200, 404 + list&amp;nbsp;&lt;/div&gt;&lt;div&gt;&lt;span style=&quot;background-color: initial;&quot;&gt;200, 404 + UserDTO&lt;/span&gt;&lt;/div&gt;&lt;div&gt;200, 404, 400 + UserDTO&lt;/div&gt;&lt;div&gt;204, 404&lt;/div&gt;" style="rounded=1;whiteSpace=wrap;html=1;fillColor=#bac8d3;strokeColor=default;gradientColor=none;fillStyle=auto;glass=0;shadow=1;sketch=1;curveFitting=1;jiggle=2;fontSize=16;fontFamily=Comic Sans MS;" parent="1" vertex="1">
          <mxGeometry x="953.75" y="601.25" width="227.5" height="120" as="geometry" />
        </mxCell>
        <mxCell id="RYuyr1wAwuhCFubWhb6a-4" style="edgeStyle=orthogonalEdgeStyle;rounded=0;orthogonalLoop=1;jettySize=auto;html=1;exitX=0.5;exitY=1;exitDx=0;exitDy=0;entryX=0.508;entryY=0.047;entryDx=0;entryDy=0;entryPerimeter=0;" edge="1" parent="1" source="sKLRubMEo-2ZgbhgU7KL-6" target="sKLRubMEo-2ZgbhgU7KL-10">
          <mxGeometry relative="1" as="geometry" />
        </mxCell>
        <mxCell id="RYuyr1wAwuhCFubWhb6a-5" style="edgeStyle=orthogonalEdgeStyle;rounded=0;orthogonalLoop=1;jettySize=auto;html=1;exitX=0.5;exitY=1;exitDx=0;exitDy=0;entryX=0.443;entryY=0.038;entryDx=0;entryDy=0;entryPerimeter=0;" edge="1" parent="1" source="sKLRubMEo-2ZgbhgU7KL-10" target="sKLRubMEo-2ZgbhgU7KL-34">
          <mxGeometry relative="1" as="geometry" />
        </mxCell>
        <mxCell id="RYuyr1wAwuhCFubWhb6a-6" style="edgeStyle=orthogonalEdgeStyle;rounded=0;orthogonalLoop=1;jettySize=auto;html=1;exitX=0.5;exitY=1;exitDx=0;exitDy=0;entryX=0.623;entryY=0.04;entryDx=0;entryDy=0;entryPerimeter=0;" edge="1" parent="1" source="sKLRubMEo-2ZgbhgU7KL-34" target="sKLRubMEo-2ZgbhgU7KL-8">
          <mxGeometry relative="1" as="geometry" />
        </mxCell>
        <mxCell id="RYuyr1wAwuhCFubWhb6a-7" style="edgeStyle=orthogonalEdgeStyle;rounded=0;orthogonalLoop=1;jettySize=auto;html=1;exitX=0.5;exitY=1;exitDx=0;exitDy=0;entryX=0.471;entryY=0.03;entryDx=0;entryDy=0;entryPerimeter=0;" edge="1" parent="1" source="sKLRubMEo-2ZgbhgU7KL-8" target="sKLRubMEo-2ZgbhgU7KL-14">
          <mxGeometry relative="1" as="geometry" />
        </mxCell>
        <mxCell id="RYuyr1wAwuhCFubWhb6a-8" style="edgeStyle=orthogonalEdgeStyle;rounded=0;orthogonalLoop=1;jettySize=auto;html=1;exitX=0.5;exitY=1;exitDx=0;exitDy=0;entryX=0.529;entryY=0.003;entryDx=0;entryDy=0;entryPerimeter=0;" edge="1" parent="1" source="sKLRubMEo-2ZgbhgU7KL-14" target="sKLRubMEo-2ZgbhgU7KL-9">
          <mxGeometry relative="1" as="geometry" />
        </mxCell>
        <mxCell id="RYuyr1wAwuhCFubWhb6a-9" style="edgeStyle=orthogonalEdgeStyle;rounded=0;orthogonalLoop=1;jettySize=auto;html=1;exitX=0.5;exitY=1;exitDx=0;exitDy=0;entryX=0.523;entryY=-0.023;entryDx=0;entryDy=0;entryPerimeter=0;" edge="1" parent="1" source="sKLRubMEo-2ZgbhgU7KL-9" target="sKLRubMEo-2ZgbhgU7KL-15">
          <mxGeometry relative="1" as="geometry" />
        </mxCell>
        <mxCell id="RYuyr1wAwuhCFubWhb6a-10" style="edgeStyle=orthogonalEdgeStyle;rounded=0;orthogonalLoop=1;jettySize=auto;html=1;exitX=0.5;exitY=1;exitDx=0;exitDy=0;entryX=0.52;entryY=-0.037;entryDx=0;entryDy=0;entryPerimeter=0;" edge="1" parent="1" source="sKLRubMEo-2ZgbhgU7KL-11" target="sKLRubMEo-2ZgbhgU7KL-12">
          <mxGeometry relative="1" as="geometry" />
        </mxCell>
        <mxCell id="RYuyr1wAwuhCFubWhb6a-11" style="edgeStyle=orthogonalEdgeStyle;rounded=0;orthogonalLoop=1;jettySize=auto;html=1;exitX=0.5;exitY=1;exitDx=0;exitDy=0;entryX=0.538;entryY=-0.047;entryDx=0;entryDy=0;entryPerimeter=0;" edge="1" parent="1" source="sKLRubMEo-2ZgbhgU7KL-12" target="sKLRubMEo-2ZgbhgU7KL-13">
          <mxGeometry relative="1" as="geometry" />
        </mxCell>
        <mxCell id="RYuyr1wAwuhCFubWhb6a-12" style="edgeStyle=orthogonalEdgeStyle;rounded=0;orthogonalLoop=1;jettySize=auto;html=1;exitX=0.5;exitY=1;exitDx=0;exitDy=0;entryX=0.526;entryY=0.043;entryDx=0;entryDy=0;entryPerimeter=0;" edge="1" parent="1" source="sKLRubMEo-2ZgbhgU7KL-13" target="sKLRubMEo-2ZgbhgU7KL-3">
          <mxGeometry relative="1" as="geometry" />
        </mxCell>
        <mxCell id="RYuyr1wAwuhCFubWhb6a-13" style="edgeStyle=orthogonalEdgeStyle;rounded=0;orthogonalLoop=1;jettySize=auto;html=1;exitX=0.5;exitY=1;exitDx=0;exitDy=0;entryX=0.508;entryY=-0.047;entryDx=0;entryDy=0;entryPerimeter=0;" edge="1" parent="1" source="sKLRubMEo-2ZgbhgU7KL-3" target="sKLRubMEo-2ZgbhgU7KL-24">
          <mxGeometry relative="1" as="geometry" />
        </mxCell>
        <mxCell id="RYuyr1wAwuhCFubWhb6a-14" style="edgeStyle=orthogonalEdgeStyle;rounded=0;orthogonalLoop=1;jettySize=auto;html=1;exitX=0.5;exitY=1;exitDx=0;exitDy=0;entryX=0.494;entryY=0.056;entryDx=0;entryDy=0;entryPerimeter=0;" edge="1" parent="1" source="sKLRubMEo-2ZgbhgU7KL-24" target="sKLRubMEo-2ZgbhgU7KL-27">
          <mxGeometry relative="1" as="geometry" />
        </mxCell>
        <mxCell id="RYuyr1wAwuhCFubWhb6a-15" style="edgeStyle=orthogonalEdgeStyle;rounded=0;orthogonalLoop=1;jettySize=auto;html=1;exitX=0.5;exitY=1;exitDx=0;exitDy=0;entryX=0.525;entryY=-0.024;entryDx=0;entryDy=0;entryPerimeter=0;" edge="1" parent="1" source="sKLRubMEo-2ZgbhgU7KL-27" target="sKLRubMEo-2ZgbhgU7KL-25">
          <mxGeometry relative="1" as="geometry" />
        </mxCell>
        <mxCell id="RYuyr1wAwuhCFubWhb6a-16" style="edgeStyle=orthogonalEdgeStyle;rounded=0;orthogonalLoop=1;jettySize=auto;html=1;exitX=0.5;exitY=1;exitDx=0;exitDy=0;entryX=0.501;entryY=0.063;entryDx=0;entryDy=0;entryPerimeter=0;" edge="1" parent="1" source="sKLRubMEo-2ZgbhgU7KL-25" target="sKLRubMEo-2ZgbhgU7KL-33">
          <mxGeometry relative="1" as="geometry" />
        </mxCell>
        <mxCell id="RYuyr1wAwuhCFubWhb6a-17" style="edgeStyle=orthogonalEdgeStyle;rounded=0;orthogonalLoop=1;jettySize=auto;html=1;exitX=0;exitY=1;exitDx=0;exitDy=0;entryX=0.43;entryY=-0.002;entryDx=0;entryDy=0;entryPerimeter=0;" edge="1" parent="1" source="sKLRubMEo-2ZgbhgU7KL-33" target="sKLRubMEo-2ZgbhgU7KL-28">
          <mxGeometry relative="1" as="geometry" />
        </mxCell>
        <mxCell id="RYuyr1wAwuhCFubWhb6a-20" style="edgeStyle=orthogonalEdgeStyle;rounded=0;orthogonalLoop=1;jettySize=auto;html=1;exitX=0.5;exitY=1;exitDx=0;exitDy=0;entryX=0.531;entryY=-0.018;entryDx=0;entryDy=0;entryPerimeter=0;" edge="1" parent="1" source="sKLRubMEo-2ZgbhgU7KL-30" target="sKLRubMEo-2ZgbhgU7KL-31">
          <mxGeometry relative="1" as="geometry" />
        </mxCell>
        <mxCell id="RYuyr1wAwuhCFubWhb6a-27" style="edgeStyle=orthogonalEdgeStyle;rounded=0;orthogonalLoop=1;jettySize=auto;html=1;exitX=0;exitY=1;exitDx=0;exitDy=0;entryX=0.348;entryY=-0.033;entryDx=0;entryDy=0;entryPerimeter=0;" edge="1" parent="1" source="sKLRubMEo-2ZgbhgU7KL-20" target="sKLRubMEo-2ZgbhgU7KL-21">
          <mxGeometry relative="1" as="geometry" />
        </mxCell>
        <mxCell id="RYuyr1wAwuhCFubWhb6a-28" style="edgeStyle=orthogonalEdgeStyle;rounded=0;orthogonalLoop=1;jettySize=auto;html=1;exitX=1;exitY=1;exitDx=0;exitDy=0;entryX=0.535;entryY=-0.049;entryDx=0;entryDy=0;entryPerimeter=0;" edge="1" parent="1" source="sKLRubMEo-2ZgbhgU7KL-20" target="sKLRubMEo-2ZgbhgU7KL-22">
          <mxGeometry relative="1" as="geometry" />
        </mxCell>
        <mxCell id="RYuyr1wAwuhCFubWhb6a-29" style="edgeStyle=orthogonalEdgeStyle;rounded=0;orthogonalLoop=1;jettySize=auto;html=1;exitX=0.5;exitY=1;exitDx=0;exitDy=0;entryX=0.53;entryY=0.013;entryDx=0;entryDy=0;entryPerimeter=0;" edge="1" parent="1" source="sKLRubMEo-2ZgbhgU7KL-19" target="sKLRubMEo-2ZgbhgU7KL-20">
          <mxGeometry relative="1" as="geometry" />
        </mxCell>
        <mxCell id="RYuyr1wAwuhCFubWhb6a-31" style="edgeStyle=orthogonalEdgeStyle;rounded=0;orthogonalLoop=1;jettySize=auto;html=1;exitX=0.5;exitY=1;exitDx=0;exitDy=0;entryX=0.515;entryY=0.1;entryDx=0;entryDy=0;entryPerimeter=0;" edge="1" parent="1" source="sKLRubMEo-2ZgbhgU7KL-16" target="sKLRubMEo-2ZgbhgU7KL-18">
          <mxGeometry relative="1" as="geometry" />
        </mxCell>
      </root>
    </mxGraphModel>
  </diagram>
</mxfile>
